<?xml version="1.0" encoding="UTF-8"?>
<svg xmlns="http://www.w3.org/2000/svg" xmlns:xlink="http://www.w3.org/1999/xlink" viewBox="0 0 47.33 47.33">
  <defs>
    <style>
      .cls-1 {
        fill: url(#linear-gradient-2);
        mix-blend-mode: color-burn;
        opacity: .5;
      }

      .cls-2 {
        fill: url(#linear-gradient);
      }

      .cls-3 {
        fill: #63200a;
      }

      .cls-4 {
        isolation: isolate;
      }

      .cls-5 {
        fill: url(#linear-gradient-3);
        mix-blend-mode: screen;
        opacity: .75;
      }

      .cls-6 {
        fill: #efd00a;
      }
    </style>
    <linearGradient id="linear-gradient" x1="0" y1="23.67" x2="64.91" y2="23.67" gradientUnits="userSpaceOnUse">
      <stop offset="0" stop-color="#ccc"/>
      <stop offset=".38" stop-color="#e6e6e6"/>
      <stop offset=".74" stop-color="#f8f8f8"/>
      <stop offset="1" stop-color="#fff"/>
    </linearGradient>
    <linearGradient id="linear-gradient-2" x1="2.81" y1="23.67" x2="44.53" y2="23.67" gradientUnits="userSpaceOnUse">
      <stop offset=".29" stop-color="#fff"/>
      <stop offset=".37" stop-color="#f8f8f8"/>
      <stop offset=".48" stop-color="#e6e6e6"/>
      <stop offset=".61" stop-color="#c7c7c7"/>
      <stop offset=".75" stop-color="#9d9d9d"/>
      <stop offset=".91" stop-color="#686868"/>
      <stop offset="1" stop-color="#454545"/>
    </linearGradient>
    <linearGradient id="linear-gradient-3" x1="53.02" y1="10.83" x2="-26.39" y2="10.83" gradientUnits="userSpaceOnUse">
      <stop offset="0" stop-color="#c7c7c7"/>
      <stop offset=".09" stop-color="#a7a7a7"/>
      <stop offset=".2" stop-color="#828282"/>
      <stop offset=".28" stop-color="#6a6a6a"/>
      <stop offset=".43" stop-color="#444"/>
      <stop offset=".58" stop-color="#262626"/>
      <stop offset=".73" stop-color="#111"/>
      <stop offset=".87" stop-color="#040404"/>
      <stop offset="1" stop-color="#000"/>
    </linearGradient>
  </defs>
  <g class="cls-4">
    <g id="katman_2" data-name="katman 2">
      <g id="Layer_1" data-name="Layer 1">
        <g>
          <circle class="cls-2" cx="23.67" cy="23.67" r="23.67"/>
          <circle class="cls-6" cx="23.67" cy="23.67" r="20.86"/>
          <circle class="cls-1" cx="23.67" cy="23.67" r="20.86"/>
          <path class="cls-5" d="M23.67,18.85c6.68,0,12.62-3.14,16.44-8.02-3.82-4.88-9.76-8.02-16.44-8.02S11.05,5.95,7.23,10.83c3.82,4.88,9.76,8.02,16.44,8.02Z"/>
          <path class="cls-3" d="M35.7,14.83c0,.88-.26,1.59-.72,2.24-.22.31-.47.59-.73.85-1.68,1.68-3.35,3.36-5.03,5.04-.13.13-.25.26-.35.4-.16.21-.16.38,0,.59.09.12.19.23.29.34.62.63,1.25,1.25,1.87,1.87.57.57,1.13,1.14,1.7,1.71.34.34.68.66,1.01,1.01.42.43.85.84,1.21,1.33.39.54.66,1.13.73,1.8.1.99-.14,1.88-.82,2.64-.5.56-1.14.88-1.88,1-1.01.16-1.93-.09-2.74-.7-.29-.21-.56-.45-.82-.7-.5-.47-.98-.96-1.47-1.45-.71-.71-1.42-1.42-2.12-2.13-.51-.51-1.03-1.02-1.54-1.53-.11-.11-.23-.21-.35-.3-.18-.13-.37-.13-.54,0-.14.1-.27.22-.4.34-1.63,1.63-3.26,3.26-4.89,4.88-.36.36-.73.7-1.16.99-.49.33-1.02.54-1.61.61-.9.1-1.73-.1-2.46-.64-.54-.41-.91-.95-1.1-1.6-.26-.89-.18-1.74.22-2.58.2-.41.47-.77.78-1.11.18-.2.37-.4.57-.6.82-.83,1.65-1.66,2.48-2.49.79-.79,1.57-1.57,2.35-2.36.1-.1.19-.21.28-.32.17-.22.17-.41,0-.63-.08-.11-.18-.21-.27-.31-.81-.82-1.63-1.63-2.45-2.45-.4-.4-.79-.8-1.19-1.2-.48-.48-.96-.95-1.43-1.43-.33-.34-.65-.69-.91-1.09-.41-.65-.62-1.35-.58-2.12.05-.92.4-1.71,1.1-2.33.44-.38.96-.62,1.53-.72,1.06-.19,2.01.07,2.87.7.25.18.48.38.7.6.82.81,1.63,1.62,2.45,2.43.92.92,1.84,1.84,2.77,2.76.1.1.21.19.32.28.21.15.38.15.59,0,.11-.08.22-.18.32-.28.84-.83,1.67-1.66,2.51-2.49.56-.56,1.11-1.13,1.67-1.68.48-.48.95-.97,1.47-1.41.52-.44,1.1-.77,1.77-.9,1.05-.2,2,0,2.84.67.44.35.75.8.94,1.33.14.39.21.79.21,1.12Z"/>
        </g>
      </g>
    </g>
  </g>
</svg>